<svg width="25" height="24" viewBox="0 0 25 24" fill="none" xmlns="http://www.w3.org/2000/svg">
<path fill-rule="evenodd" clip-rule="evenodd" d="M12.5 2.25C7.11522 2.25 2.75 6.61522 2.75 12C2.75 17.3848 7.11522 21.75 12.5 21.75C17.8848 21.75 22.25 17.3848 22.25 12C22.2443 6.61758 17.8824 2.25568 12.5 2.25ZM13.25 20.2153V14.25H15.5C15.9142 14.25 16.25 13.9142 16.25 13.5C16.25 13.0858 15.9142 12.75 15.5 12.75H13.25V10.5C13.25 9.67157 13.9216 9 14.75 9H16.25C16.6642 9 17 8.66421 17 8.25C17 7.83579 16.6642 7.5 16.25 7.5H14.75C13.0931 7.5 11.75 8.84315 11.75 10.5V12.75H9.5C9.08579 12.75 8.75 13.0858 8.75 13.5C8.75 13.9142 9.08579 14.25 9.5 14.25H11.75V20.2153C7.35788 19.8144 4.05787 16.0299 4.25854 11.6241C4.45922 7.21827 8.08962 3.74947 12.5 3.74947C16.9104 3.74947 20.5408 7.21827 20.7415 11.6241C20.9421 16.0299 17.6421 19.8144 13.25 20.2153Z" fill="#707070"/>
</svg>
