<svg width="25" height="24" viewBox="0 0 25 24" fill="none" xmlns="http://www.w3.org/2000/svg">
<path fill-rule="evenodd" clip-rule="evenodd" d="M12.5 7.5C10.0147 7.5 8 9.51472 8 12C8 14.4853 10.0147 16.5 12.5 16.5C14.9853 16.5 17 14.4853 17 12C16.9974 9.51579 14.9842 7.50258 12.5 7.5ZM12.5 15C10.8431 15 9.5 13.6569 9.5 12C9.5 10.3431 10.8431 9 12.5 9C14.1569 9 15.5 10.3431 15.5 12C15.5 13.6569 14.1569 15 12.5 15ZM17 2.25H8C5.10179 2.2531 2.7531 4.60179 2.75 7.5V16.5C2.7531 19.3982 5.10179 21.7469 8 21.75H17C19.8982 21.7469 22.2469 19.3982 22.25 16.5V7.5C22.2469 4.60179 19.8982 2.2531 17 2.25ZM20.75 16.5C20.75 18.5711 19.0711 20.25 17 20.25H8C5.92893 20.25 4.25 18.5711 4.25 16.5V7.5C4.25 5.42893 5.92893 3.75 8 3.75H17C19.0711 3.75 20.75 5.42893 20.75 7.5V16.5ZM18.5 7.125C18.5 7.74632 17.9963 8.25 17.375 8.25C16.7537 8.25 16.25 7.74632 16.25 7.125C16.25 6.50368 16.7537 6 17.375 6C17.9963 6 18.5 6.50368 18.5 7.125Z" fill="#707070"/>
</svg>
