<svg width="25" height="24" viewBox="0 0 25 24" fill="none" xmlns="http://www.w3.org/2000/svg">
<path fill-rule="evenodd" clip-rule="evenodd" d="M13.6445 9.7436L19.5446 3.5H21.5L21.4921 3.50862L14.5135 10.8959L20.9026 19.3634C20.9798 19.4653 21.028 19.5862 21.0421 19.7132C21.0562 19.8402 21.0358 19.9687 20.9829 20.0851C20.93 20.2015 20.8467 20.3015 20.7416 20.3745C20.6366 20.4475 20.5137 20.4909 20.3861 20.5H16.3857C16.2843 20.493 16.1856 20.4643 16.0963 20.4157C16.007 20.3671 15.9293 20.2999 15.8684 20.2186L11.3727 14.2603L5.50724 20.5H3.5L10.5038 13.108L4.11465 4.64055C4.03489 4.53508 3.98619 4.40949 3.97401 4.27789C3.96183 4.14629 3.98667 4.01391 4.04573 3.89564C4.10478 3.77737 4.19572 3.6779 4.3083 3.60842C4.42088 3.53894 4.55064 3.5022 4.68299 3.50235H8.58051C8.80423 3.50235 9.01461 3.60739 9.14884 3.78533L13.6445 9.7436ZM13.0456 11.3114C13.0259 11.2881 13.0075 11.2638 12.9906 11.2385L8.22569 4.92353H6.11012L16.7916 19.0804H18.9079L13.0456 11.3114Z" fill="#707070"/>
</svg>
